<mxfile host="Electron" agent="Mozilla/5.0 (Windows NT 10.0; Win64; x64) AppleWebKit/537.36 (KHTML, like Gecko) draw.io/24.7.17 Chrome/128.0.6613.36 Electron/32.0.1 Safari/537.36" version="24.7.17">
  <diagram name="Page-1" id="mGmBcxsCJ30svI-ysz3i">
    <mxGraphModel dx="989" dy="577" grid="1" gridSize="10" guides="1" tooltips="1" connect="1" arrows="1" fold="1" page="1" pageScale="1" pageWidth="827" pageHeight="1169" math="0" shadow="0">
      <root>
        <mxCell id="0" />
        <mxCell id="1" parent="0" />
        <mxCell id="Pp7_haZrAaMx0LdNrJ8j-12" style="edgeStyle=orthogonalEdgeStyle;rounded=0;orthogonalLoop=1;jettySize=auto;html=1;exitX=0.5;exitY=1;exitDx=0;exitDy=0;entryX=0.5;entryY=0;entryDx=0;entryDy=0;" edge="1" parent="1" source="Pp7_haZrAaMx0LdNrJ8j-1" target="Pp7_haZrAaMx0LdNrJ8j-3">
          <mxGeometry relative="1" as="geometry" />
        </mxCell>
        <mxCell id="Pp7_haZrAaMx0LdNrJ8j-1" value="Начало" style="rounded=1;whiteSpace=wrap;html=1;arcSize=50;container=0;strokeWidth=2;fontFamily=JetBrains Mono;fontSize=10;" vertex="1" parent="1">
          <mxGeometry x="184" y="20" width="200" height="30" as="geometry" />
        </mxCell>
        <mxCell id="Pp7_haZrAaMx0LdNrJ8j-2" value="Конец" style="rounded=1;whiteSpace=wrap;html=1;arcSize=50;container=0;strokeWidth=2;fontFamily=JetBrains Mono;fontSize=10;" vertex="1" parent="1">
          <mxGeometry x="450" y="830" width="200" height="30" as="geometry" />
        </mxCell>
        <mxCell id="Pp7_haZrAaMx0LdNrJ8j-13" style="edgeStyle=orthogonalEdgeStyle;rounded=0;orthogonalLoop=1;jettySize=auto;html=1;exitX=0.5;exitY=1;exitDx=0;exitDy=0;entryX=0.5;entryY=0;entryDx=0;entryDy=0;" edge="1" parent="1" source="Pp7_haZrAaMx0LdNrJ8j-3" target="Pp7_haZrAaMx0LdNrJ8j-4">
          <mxGeometry relative="1" as="geometry" />
        </mxCell>
        <mxCell id="Pp7_haZrAaMx0LdNrJ8j-3" value="Ввод n" style="shape=parallelogram;perimeter=parallelogramPerimeter;whiteSpace=wrap;html=1;fixedSize=1;size=30;container=0;strokeWidth=2;fontFamily=JetBrains Mono;fontSize=10;" vertex="1" parent="1">
          <mxGeometry x="184" y="70" width="200" height="30" as="geometry" />
        </mxCell>
        <mxCell id="Pp7_haZrAaMx0LdNrJ8j-14" style="edgeStyle=orthogonalEdgeStyle;rounded=0;orthogonalLoop=1;jettySize=auto;html=1;exitX=0.5;exitY=1;exitDx=0;exitDy=0;entryX=0.5;entryY=0;entryDx=0;entryDy=0;" edge="1" parent="1" source="Pp7_haZrAaMx0LdNrJ8j-4" target="Pp7_haZrAaMx0LdNrJ8j-7">
          <mxGeometry relative="1" as="geometry" />
        </mxCell>
        <mxCell id="Pp7_haZrAaMx0LdNrJ8j-4" value="div3 = 0&lt;div&gt;evenSum = 0&lt;/div&gt;&lt;div&gt;evenCnt = 0&lt;/div&gt;" style="rounded=0;whiteSpace=wrap;html=1;strokeWidth=2;fontFamily=JetBrains Mono;fontSize=10;" vertex="1" parent="1">
          <mxGeometry x="184" y="120" width="200" height="50" as="geometry" />
        </mxCell>
        <mxCell id="Pp7_haZrAaMx0LdNrJ8j-34" style="edgeStyle=orthogonalEdgeStyle;rounded=0;orthogonalLoop=1;jettySize=auto;html=1;exitX=0.5;exitY=0;exitDx=0;exitDy=0;entryX=0.5;entryY=0;entryDx=0;entryDy=0;" edge="1" parent="1" source="Pp7_haZrAaMx0LdNrJ8j-5" target="Pp7_haZrAaMx0LdNrJ8j-35">
          <mxGeometry relative="1" as="geometry" />
        </mxCell>
        <mxCell id="Pp7_haZrAaMx0LdNrJ8j-5" value="&lt;div style=&quot;font-size: 10px;&quot;&gt;&lt;br style=&quot;font-size: 10px;&quot;&gt;&lt;/div&gt;&lt;div style=&quot;font-size: 10px;&quot;&gt;A&lt;/div&gt;" style="shape=loopLimit;whiteSpace=wrap;html=1;size=20;direction=west;strokeWidth=2;fontFamily=JetBrains Mono;fontSize=10;" vertex="1" parent="1">
          <mxGeometry x="184" y="750" width="200" height="41" as="geometry" />
        </mxCell>
        <mxCell id="Pp7_haZrAaMx0LdNrJ8j-16" style="edgeStyle=orthogonalEdgeStyle;rounded=0;orthogonalLoop=1;jettySize=auto;html=1;exitX=0.5;exitY=1;exitDx=0;exitDy=0;entryX=0.5;entryY=0;entryDx=0;entryDy=0;" edge="1" parent="1" source="Pp7_haZrAaMx0LdNrJ8j-6" target="Pp7_haZrAaMx0LdNrJ8j-9">
          <mxGeometry relative="1" as="geometry" />
        </mxCell>
        <mxCell id="Pp7_haZrAaMx0LdNrJ8j-6" value="&lt;div style=&quot;font-size: 10px;&quot;&gt;A&lt;/div&gt;&lt;div style=&quot;font-size: 10px;&quot;&gt;i &amp;gt;= n&lt;/div&gt;" style="shape=loopLimit;whiteSpace=wrap;html=1;size=18;direction=east;strokeWidth=2;fontFamily=JetBrains Mono;fontSize=10;" vertex="1" parent="1">
          <mxGeometry x="184" y="240" width="200" height="39" as="geometry" />
        </mxCell>
        <mxCell id="Pp7_haZrAaMx0LdNrJ8j-15" style="edgeStyle=orthogonalEdgeStyle;rounded=0;orthogonalLoop=1;jettySize=auto;html=1;exitX=0.5;exitY=1;exitDx=0;exitDy=0;entryX=0.5;entryY=0;entryDx=0;entryDy=0;" edge="1" parent="1" source="Pp7_haZrAaMx0LdNrJ8j-7" target="Pp7_haZrAaMx0LdNrJ8j-6">
          <mxGeometry relative="1" as="geometry" />
        </mxCell>
        <mxCell id="Pp7_haZrAaMx0LdNrJ8j-7" value="i = 0" style="rounded=0;whiteSpace=wrap;html=1;strokeWidth=2;fontFamily=JetBrains Mono;fontSize=10;" vertex="1" parent="1">
          <mxGeometry x="184" y="190" width="200" height="30" as="geometry" />
        </mxCell>
        <mxCell id="Pp7_haZrAaMx0LdNrJ8j-32" style="edgeStyle=orthogonalEdgeStyle;rounded=0;orthogonalLoop=1;jettySize=auto;html=1;exitX=0.5;exitY=1;exitDx=0;exitDy=0;entryX=0.5;entryY=1;entryDx=0;entryDy=0;" edge="1" parent="1" source="Pp7_haZrAaMx0LdNrJ8j-8" target="Pp7_haZrAaMx0LdNrJ8j-5">
          <mxGeometry relative="1" as="geometry" />
        </mxCell>
        <mxCell id="Pp7_haZrAaMx0LdNrJ8j-8" value="i = i + 1" style="rounded=0;whiteSpace=wrap;html=1;strokeWidth=2;fontFamily=JetBrains Mono;fontSize=10;" vertex="1" parent="1">
          <mxGeometry x="184" y="700" width="200" height="30" as="geometry" />
        </mxCell>
        <mxCell id="Pp7_haZrAaMx0LdNrJ8j-17" style="edgeStyle=orthogonalEdgeStyle;rounded=0;orthogonalLoop=1;jettySize=auto;html=1;exitX=0.5;exitY=1;exitDx=0;exitDy=0;entryX=0.5;entryY=0;entryDx=0;entryDy=0;" edge="1" parent="1" source="Pp7_haZrAaMx0LdNrJ8j-9" target="Pp7_haZrAaMx0LdNrJ8j-10">
          <mxGeometry relative="1" as="geometry" />
        </mxCell>
        <mxCell id="Pp7_haZrAaMx0LdNrJ8j-9" value="Ввод x" style="shape=parallelogram;perimeter=parallelogramPerimeter;whiteSpace=wrap;html=1;fixedSize=1;size=30;container=0;strokeWidth=2;fontFamily=JetBrains Mono;fontSize=10;" vertex="1" parent="1">
          <mxGeometry x="184" y="300" width="200" height="30" as="geometry" />
        </mxCell>
        <mxCell id="Pp7_haZrAaMx0LdNrJ8j-18" style="edgeStyle=orthogonalEdgeStyle;rounded=0;orthogonalLoop=1;jettySize=auto;html=1;exitX=0.5;exitY=1;exitDx=0;exitDy=0;entryX=0.5;entryY=0;entryDx=0;entryDy=0;" edge="1" parent="1" source="Pp7_haZrAaMx0LdNrJ8j-10" target="Pp7_haZrAaMx0LdNrJ8j-11">
          <mxGeometry relative="1" as="geometry" />
        </mxCell>
        <mxCell id="Pp7_haZrAaMx0LdNrJ8j-19" value="1" style="edgeLabel;html=1;align=center;verticalAlign=middle;resizable=0;points=[];" vertex="1" connectable="0" parent="Pp7_haZrAaMx0LdNrJ8j-18">
          <mxGeometry x="-0.4" y="1" relative="1" as="geometry">
            <mxPoint x="9" y="4" as="offset" />
          </mxGeometry>
        </mxCell>
        <mxCell id="Pp7_haZrAaMx0LdNrJ8j-21" style="edgeStyle=orthogonalEdgeStyle;rounded=0;orthogonalLoop=1;jettySize=auto;html=1;exitX=1;exitY=0.5;exitDx=0;exitDy=0;entryX=0.5;entryY=0;entryDx=0;entryDy=0;" edge="1" parent="1" source="Pp7_haZrAaMx0LdNrJ8j-10" target="Pp7_haZrAaMx0LdNrJ8j-20">
          <mxGeometry relative="1" as="geometry">
            <Array as="points">
              <mxPoint x="404" y="380" />
              <mxPoint x="404" y="480" />
              <mxPoint x="284" y="480" />
            </Array>
          </mxGeometry>
        </mxCell>
        <mxCell id="Pp7_haZrAaMx0LdNrJ8j-23" value="0" style="edgeLabel;html=1;align=center;verticalAlign=middle;resizable=0;points=[];" vertex="1" connectable="0" parent="Pp7_haZrAaMx0LdNrJ8j-21">
          <mxGeometry x="-0.9462" y="1" relative="1" as="geometry">
            <mxPoint x="-7" y="-9" as="offset" />
          </mxGeometry>
        </mxCell>
        <mxCell id="Pp7_haZrAaMx0LdNrJ8j-10" value="x % 3 = 0" style="rhombus;whiteSpace=wrap;html=1;strokeWidth=2;fontFamily=JetBrains Mono;fontSize=10;" vertex="1" parent="1">
          <mxGeometry x="184" y="350" width="200" height="60" as="geometry" />
        </mxCell>
        <mxCell id="Pp7_haZrAaMx0LdNrJ8j-22" style="edgeStyle=orthogonalEdgeStyle;rounded=0;orthogonalLoop=1;jettySize=auto;html=1;exitX=0.5;exitY=1;exitDx=0;exitDy=0;" edge="1" parent="1" source="Pp7_haZrAaMx0LdNrJ8j-11">
          <mxGeometry relative="1" as="geometry">
            <mxPoint x="284" y="500" as="targetPoint" />
          </mxGeometry>
        </mxCell>
        <mxCell id="Pp7_haZrAaMx0LdNrJ8j-11" value="div3 = div3 + 1" style="rounded=0;whiteSpace=wrap;html=1;strokeWidth=2;fontFamily=JetBrains Mono;fontSize=10;" vertex="1" parent="1">
          <mxGeometry x="184" y="430" width="200" height="30" as="geometry" />
        </mxCell>
        <mxCell id="Pp7_haZrAaMx0LdNrJ8j-25" style="edgeStyle=orthogonalEdgeStyle;rounded=0;orthogonalLoop=1;jettySize=auto;html=1;exitX=0.5;exitY=1;exitDx=0;exitDy=0;entryX=0.5;entryY=0;entryDx=0;entryDy=0;" edge="1" parent="1" source="Pp7_haZrAaMx0LdNrJ8j-20" target="Pp7_haZrAaMx0LdNrJ8j-24">
          <mxGeometry relative="1" as="geometry" />
        </mxCell>
        <mxCell id="Pp7_haZrAaMx0LdNrJ8j-26" value="1" style="edgeLabel;html=1;align=center;verticalAlign=middle;resizable=0;points=[];" vertex="1" connectable="0" parent="Pp7_haZrAaMx0LdNrJ8j-25">
          <mxGeometry x="-0.3366" y="1" relative="1" as="geometry">
            <mxPoint x="9" y="3" as="offset" />
          </mxGeometry>
        </mxCell>
        <mxCell id="Pp7_haZrAaMx0LdNrJ8j-28" style="edgeStyle=orthogonalEdgeStyle;rounded=0;orthogonalLoop=1;jettySize=auto;html=1;exitX=1;exitY=0.5;exitDx=0;exitDy=0;entryX=0.5;entryY=0;entryDx=0;entryDy=0;" edge="1" parent="1" source="Pp7_haZrAaMx0LdNrJ8j-20" target="Pp7_haZrAaMx0LdNrJ8j-27">
          <mxGeometry relative="1" as="geometry">
            <Array as="points">
              <mxPoint x="404" y="530" />
              <mxPoint x="404" y="630" />
              <mxPoint x="284" y="630" />
            </Array>
          </mxGeometry>
        </mxCell>
        <mxCell id="Pp7_haZrAaMx0LdNrJ8j-30" value="0" style="edgeLabel;html=1;align=center;verticalAlign=middle;resizable=0;points=[];" vertex="1" connectable="0" parent="Pp7_haZrAaMx0LdNrJ8j-28">
          <mxGeometry x="-0.9006" relative="1" as="geometry">
            <mxPoint x="-13" y="-10" as="offset" />
          </mxGeometry>
        </mxCell>
        <mxCell id="Pp7_haZrAaMx0LdNrJ8j-20" value="x % 2 = 0" style="rhombus;whiteSpace=wrap;html=1;strokeWidth=2;fontFamily=JetBrains Mono;fontSize=10;" vertex="1" parent="1">
          <mxGeometry x="184" y="500" width="200" height="60" as="geometry" />
        </mxCell>
        <mxCell id="Pp7_haZrAaMx0LdNrJ8j-29" style="edgeStyle=orthogonalEdgeStyle;rounded=0;orthogonalLoop=1;jettySize=auto;html=1;exitX=0.5;exitY=1;exitDx=0;exitDy=0;entryX=0.5;entryY=0;entryDx=0;entryDy=0;" edge="1" parent="1" source="Pp7_haZrAaMx0LdNrJ8j-24" target="Pp7_haZrAaMx0LdNrJ8j-27">
          <mxGeometry relative="1" as="geometry" />
        </mxCell>
        <mxCell id="Pp7_haZrAaMx0LdNrJ8j-24" value="evenSum = evenSum + x&lt;div&gt;evenCnt = evenCnt + 1&lt;/div&gt;" style="rounded=0;whiteSpace=wrap;html=1;strokeWidth=2;fontFamily=JetBrains Mono;fontSize=10;" vertex="1" parent="1">
          <mxGeometry x="184" y="580" width="200" height="30" as="geometry" />
        </mxCell>
        <mxCell id="Pp7_haZrAaMx0LdNrJ8j-31" style="edgeStyle=orthogonalEdgeStyle;rounded=0;orthogonalLoop=1;jettySize=auto;html=1;exitX=0.5;exitY=1;exitDx=0;exitDy=0;entryX=0.5;entryY=0;entryDx=0;entryDy=0;" edge="1" parent="1" source="Pp7_haZrAaMx0LdNrJ8j-27" target="Pp7_haZrAaMx0LdNrJ8j-8">
          <mxGeometry relative="1" as="geometry" />
        </mxCell>
        <mxCell id="Pp7_haZrAaMx0LdNrJ8j-27" value="arr[i] = x" style="rounded=0;whiteSpace=wrap;html=1;strokeWidth=2;fontFamily=JetBrains Mono;fontSize=10;" vertex="1" parent="1">
          <mxGeometry x="184" y="650" width="200" height="30" as="geometry" />
        </mxCell>
        <mxCell id="Pp7_haZrAaMx0LdNrJ8j-38" style="edgeStyle=orthogonalEdgeStyle;rounded=0;orthogonalLoop=1;jettySize=auto;html=1;exitX=0.5;exitY=1;exitDx=0;exitDy=0;entryX=0.5;entryY=0;entryDx=0;entryDy=0;" edge="1" parent="1" source="Pp7_haZrAaMx0LdNrJ8j-35" target="Pp7_haZrAaMx0LdNrJ8j-37">
          <mxGeometry relative="1" as="geometry" />
        </mxCell>
        <mxCell id="Pp7_haZrAaMx0LdNrJ8j-40" value="1" style="edgeLabel;html=1;align=center;verticalAlign=middle;resizable=0;points=[];" vertex="1" connectable="0" parent="Pp7_haZrAaMx0LdNrJ8j-38">
          <mxGeometry x="-0.3" y="2" relative="1" as="geometry">
            <mxPoint x="8" y="3" as="offset" />
          </mxGeometry>
        </mxCell>
        <mxCell id="Pp7_haZrAaMx0LdNrJ8j-41" style="edgeStyle=orthogonalEdgeStyle;rounded=0;orthogonalLoop=1;jettySize=auto;html=1;exitX=1;exitY=0.5;exitDx=0;exitDy=0;entryX=0.5;entryY=0;entryDx=0;entryDy=0;" edge="1" parent="1" source="Pp7_haZrAaMx0LdNrJ8j-35" target="Pp7_haZrAaMx0LdNrJ8j-39">
          <mxGeometry relative="1" as="geometry">
            <Array as="points">
              <mxPoint x="796" y="70" />
              <mxPoint x="796" y="170" />
              <mxPoint x="550" y="170" />
            </Array>
          </mxGeometry>
        </mxCell>
        <mxCell id="Pp7_haZrAaMx0LdNrJ8j-43" value="0" style="edgeLabel;html=1;align=center;verticalAlign=middle;resizable=0;points=[];" vertex="1" connectable="0" parent="Pp7_haZrAaMx0LdNrJ8j-41">
          <mxGeometry x="-0.9" y="1" relative="1" as="geometry">
            <mxPoint x="-13" y="-9" as="offset" />
          </mxGeometry>
        </mxCell>
        <mxCell id="Pp7_haZrAaMx0LdNrJ8j-35" value="evenCnt &amp;gt; 0" style="rhombus;whiteSpace=wrap;html=1;strokeWidth=2;fontFamily=JetBrains Mono;fontSize=10;" vertex="1" parent="1">
          <mxGeometry x="450" y="40" width="200" height="60" as="geometry" />
        </mxCell>
        <mxCell id="Pp7_haZrAaMx0LdNrJ8j-42" style="edgeStyle=orthogonalEdgeStyle;rounded=0;orthogonalLoop=1;jettySize=auto;html=1;exitX=0.5;exitY=1;exitDx=0;exitDy=0;entryX=0.5;entryY=0;entryDx=0;entryDy=0;" edge="1" parent="1" source="Pp7_haZrAaMx0LdNrJ8j-37" target="Pp7_haZrAaMx0LdNrJ8j-39">
          <mxGeometry relative="1" as="geometry" />
        </mxCell>
        <mxCell id="Pp7_haZrAaMx0LdNrJ8j-37" value="evenAvg = round(evenSum / evenCnt)" style="rounded=0;whiteSpace=wrap;html=1;strokeWidth=2;fontFamily=JetBrains Mono;fontSize=10;" vertex="1" parent="1">
          <mxGeometry x="450" y="120" width="200" height="30" as="geometry" />
        </mxCell>
        <mxCell id="Pp7_haZrAaMx0LdNrJ8j-47" style="edgeStyle=orthogonalEdgeStyle;rounded=0;orthogonalLoop=1;jettySize=auto;html=1;exitX=0.5;exitY=1;exitDx=0;exitDy=0;entryX=0.5;entryY=0;entryDx=0;entryDy=0;" edge="1" parent="1" source="Pp7_haZrAaMx0LdNrJ8j-39" target="Pp7_haZrAaMx0LdNrJ8j-46">
          <mxGeometry relative="1" as="geometry" />
        </mxCell>
        <mxCell id="Pp7_haZrAaMx0LdNrJ8j-39" value="narr[0] = div3" style="rounded=0;whiteSpace=wrap;html=1;strokeWidth=2;fontFamily=JetBrains Mono;fontSize=10;" vertex="1" parent="1">
          <mxGeometry x="450" y="190" width="200" height="30" as="geometry" />
        </mxCell>
        <mxCell id="Pp7_haZrAaMx0LdNrJ8j-55" style="edgeStyle=orthogonalEdgeStyle;rounded=0;orthogonalLoop=1;jettySize=auto;html=1;exitX=0.5;exitY=0;exitDx=0;exitDy=0;entryX=0.5;entryY=0;entryDx=0;entryDy=0;" edge="1" parent="1" source="Pp7_haZrAaMx0LdNrJ8j-44" target="Pp7_haZrAaMx0LdNrJ8j-54">
          <mxGeometry relative="1" as="geometry" />
        </mxCell>
        <mxCell id="Pp7_haZrAaMx0LdNrJ8j-44" value="&lt;div style=&quot;font-size: 10px;&quot;&gt;&lt;br style=&quot;font-size: 10px;&quot;&gt;&lt;/div&gt;&lt;div style=&quot;font-size: 10px;&quot;&gt;Б&lt;/div&gt;" style="shape=loopLimit;whiteSpace=wrap;html=1;size=20;direction=west;strokeWidth=2;fontFamily=JetBrains Mono;fontSize=10;" vertex="1" parent="1">
          <mxGeometry x="450" y="449.5" width="200" height="41" as="geometry" />
        </mxCell>
        <mxCell id="Pp7_haZrAaMx0LdNrJ8j-52" style="edgeStyle=orthogonalEdgeStyle;rounded=0;orthogonalLoop=1;jettySize=auto;html=1;exitX=0.5;exitY=1;exitDx=0;exitDy=0;entryX=0.5;entryY=0;entryDx=0;entryDy=0;" edge="1" parent="1" source="Pp7_haZrAaMx0LdNrJ8j-45" target="Pp7_haZrAaMx0LdNrJ8j-51">
          <mxGeometry relative="1" as="geometry" />
        </mxCell>
        <mxCell id="Pp7_haZrAaMx0LdNrJ8j-45" value="&lt;div style=&quot;font-size: 10px;&quot;&gt;Б&lt;/div&gt;&lt;div style=&quot;font-size: 10px;&quot;&gt;i &amp;gt;= n&lt;/div&gt;" style="shape=loopLimit;whiteSpace=wrap;html=1;size=18;direction=east;strokeWidth=2;fontFamily=JetBrains Mono;fontSize=10;" vertex="1" parent="1">
          <mxGeometry x="450" y="289" width="200" height="39" as="geometry" />
        </mxCell>
        <mxCell id="Pp7_haZrAaMx0LdNrJ8j-48" style="edgeStyle=orthogonalEdgeStyle;rounded=0;orthogonalLoop=1;jettySize=auto;html=1;exitX=0.5;exitY=1;exitDx=0;exitDy=0;entryX=0.5;entryY=0;entryDx=0;entryDy=0;" edge="1" parent="1" source="Pp7_haZrAaMx0LdNrJ8j-46" target="Pp7_haZrAaMx0LdNrJ8j-45">
          <mxGeometry relative="1" as="geometry" />
        </mxCell>
        <mxCell id="Pp7_haZrAaMx0LdNrJ8j-46" value="i = 0" style="rounded=0;whiteSpace=wrap;html=1;strokeWidth=2;fontFamily=JetBrains Mono;fontSize=10;" vertex="1" parent="1">
          <mxGeometry x="450" y="240" width="200" height="30" as="geometry" />
        </mxCell>
        <mxCell id="Pp7_haZrAaMx0LdNrJ8j-50" style="edgeStyle=orthogonalEdgeStyle;rounded=0;orthogonalLoop=1;jettySize=auto;html=1;exitX=0.5;exitY=1;exitDx=0;exitDy=0;entryX=0.5;entryY=1;entryDx=0;entryDy=0;" edge="1" parent="1" source="Pp7_haZrAaMx0LdNrJ8j-49" target="Pp7_haZrAaMx0LdNrJ8j-44">
          <mxGeometry relative="1" as="geometry" />
        </mxCell>
        <mxCell id="Pp7_haZrAaMx0LdNrJ8j-49" value="i = i + 1" style="rounded=0;whiteSpace=wrap;html=1;strokeWidth=2;fontFamily=JetBrains Mono;fontSize=10;" vertex="1" parent="1">
          <mxGeometry x="450" y="399.5" width="200" height="30" as="geometry" />
        </mxCell>
        <mxCell id="Pp7_haZrAaMx0LdNrJ8j-53" style="edgeStyle=orthogonalEdgeStyle;rounded=0;orthogonalLoop=1;jettySize=auto;html=1;exitX=0.5;exitY=1;exitDx=0;exitDy=0;entryX=0.5;entryY=0;entryDx=0;entryDy=0;" edge="1" parent="1" source="Pp7_haZrAaMx0LdNrJ8j-51" target="Pp7_haZrAaMx0LdNrJ8j-49">
          <mxGeometry relative="1" as="geometry" />
        </mxCell>
        <mxCell id="Pp7_haZrAaMx0LdNrJ8j-51" value="narr[i + 1] = arr[i]" style="rounded=0;whiteSpace=wrap;html=1;strokeWidth=2;fontFamily=JetBrains Mono;fontSize=10;" vertex="1" parent="1">
          <mxGeometry x="450" y="350" width="200" height="30" as="geometry" />
        </mxCell>
        <mxCell id="Pp7_haZrAaMx0LdNrJ8j-60" style="edgeStyle=orthogonalEdgeStyle;rounded=0;orthogonalLoop=1;jettySize=auto;html=1;exitX=0.5;exitY=1;exitDx=0;exitDy=0;entryX=0.5;entryY=0;entryDx=0;entryDy=0;" edge="1" parent="1" source="Pp7_haZrAaMx0LdNrJ8j-54" target="Pp7_haZrAaMx0LdNrJ8j-59">
          <mxGeometry relative="1" as="geometry" />
        </mxCell>
        <mxCell id="Pp7_haZrAaMx0LdNrJ8j-54" value="narr[n+1] = evenAvg" style="rounded=0;whiteSpace=wrap;html=1;strokeWidth=2;fontFamily=JetBrains Mono;fontSize=10;" vertex="1" parent="1">
          <mxGeometry x="450" y="510" width="200" height="30" as="geometry" />
        </mxCell>
        <mxCell id="Pp7_haZrAaMx0LdNrJ8j-64" style="edgeStyle=orthogonalEdgeStyle;rounded=0;orthogonalLoop=1;jettySize=auto;html=1;exitX=0.5;exitY=0;exitDx=0;exitDy=0;entryX=0.5;entryY=0;entryDx=0;entryDy=0;" edge="1" parent="1" source="Pp7_haZrAaMx0LdNrJ8j-56" target="Pp7_haZrAaMx0LdNrJ8j-2">
          <mxGeometry relative="1" as="geometry" />
        </mxCell>
        <mxCell id="Pp7_haZrAaMx0LdNrJ8j-56" value="&lt;div style=&quot;font-size: 10px;&quot;&gt;&lt;br style=&quot;font-size: 10px;&quot;&gt;&lt;/div&gt;&lt;div style=&quot;font-size: 10px;&quot;&gt;Вывод&lt;/div&gt;" style="shape=loopLimit;whiteSpace=wrap;html=1;size=20;direction=west;strokeWidth=2;fontFamily=JetBrains Mono;fontSize=10;" vertex="1" parent="1">
          <mxGeometry x="450" y="770" width="200" height="41" as="geometry" />
        </mxCell>
        <mxCell id="Pp7_haZrAaMx0LdNrJ8j-66" style="edgeStyle=orthogonalEdgeStyle;rounded=0;orthogonalLoop=1;jettySize=auto;html=1;exitX=0.5;exitY=1;exitDx=0;exitDy=0;entryX=0.5;entryY=0;entryDx=0;entryDy=0;" edge="1" parent="1" source="Pp7_haZrAaMx0LdNrJ8j-57" target="Pp7_haZrAaMx0LdNrJ8j-65">
          <mxGeometry relative="1" as="geometry" />
        </mxCell>
        <mxCell id="Pp7_haZrAaMx0LdNrJ8j-57" value="&lt;div style=&quot;font-size: 10px;&quot;&gt;Вывод&lt;/div&gt;&lt;div style=&quot;font-size: 10px;&quot;&gt;i &amp;gt;= n + 2&lt;/div&gt;" style="shape=loopLimit;whiteSpace=wrap;html=1;size=18;direction=east;strokeWidth=2;fontFamily=JetBrains Mono;fontSize=10;" vertex="1" parent="1">
          <mxGeometry x="450" y="610" width="200" height="39" as="geometry" />
        </mxCell>
        <mxCell id="Pp7_haZrAaMx0LdNrJ8j-61" style="edgeStyle=orthogonalEdgeStyle;rounded=0;orthogonalLoop=1;jettySize=auto;html=1;exitX=0.5;exitY=1;exitDx=0;exitDy=0;entryX=0.5;entryY=0;entryDx=0;entryDy=0;" edge="1" parent="1" source="Pp7_haZrAaMx0LdNrJ8j-59" target="Pp7_haZrAaMx0LdNrJ8j-57">
          <mxGeometry relative="1" as="geometry" />
        </mxCell>
        <mxCell id="Pp7_haZrAaMx0LdNrJ8j-59" value="i = 0" style="rounded=0;whiteSpace=wrap;html=1;strokeWidth=2;fontFamily=JetBrains Mono;fontSize=10;" vertex="1" parent="1">
          <mxGeometry x="450" y="560" width="200" height="30" as="geometry" />
        </mxCell>
        <mxCell id="Pp7_haZrAaMx0LdNrJ8j-63" style="edgeStyle=orthogonalEdgeStyle;rounded=0;orthogonalLoop=1;jettySize=auto;html=1;exitX=0.5;exitY=1;exitDx=0;exitDy=0;entryX=0.5;entryY=1;entryDx=0;entryDy=0;" edge="1" parent="1" source="Pp7_haZrAaMx0LdNrJ8j-62" target="Pp7_haZrAaMx0LdNrJ8j-56">
          <mxGeometry relative="1" as="geometry" />
        </mxCell>
        <mxCell id="Pp7_haZrAaMx0LdNrJ8j-62" value="i = i + 1" style="rounded=0;whiteSpace=wrap;html=1;strokeWidth=2;fontFamily=JetBrains Mono;fontSize=10;" vertex="1" parent="1">
          <mxGeometry x="450" y="720" width="200" height="30" as="geometry" />
        </mxCell>
        <mxCell id="Pp7_haZrAaMx0LdNrJ8j-67" style="edgeStyle=orthogonalEdgeStyle;rounded=0;orthogonalLoop=1;jettySize=auto;html=1;exitX=0.5;exitY=1;exitDx=0;exitDy=0;entryX=0.5;entryY=0;entryDx=0;entryDy=0;" edge="1" parent="1" source="Pp7_haZrAaMx0LdNrJ8j-65" target="Pp7_haZrAaMx0LdNrJ8j-62">
          <mxGeometry relative="1" as="geometry" />
        </mxCell>
        <mxCell id="Pp7_haZrAaMx0LdNrJ8j-65" value="Вывод narr[i]" style="shape=parallelogram;perimeter=parallelogramPerimeter;whiteSpace=wrap;html=1;fixedSize=1;size=30;container=0;strokeWidth=2;fontFamily=JetBrains Mono;fontSize=10;" vertex="1" parent="1">
          <mxGeometry x="450" y="670" width="200" height="30" as="geometry" />
        </mxCell>
        <mxCell id="Pp7_haZrAaMx0LdNrJ8j-69" style="edgeStyle=orthogonalEdgeStyle;rounded=0;orthogonalLoop=1;jettySize=auto;html=1;exitX=0;exitY=0.5;exitDx=0;exitDy=0;exitPerimeter=0;entryX=0;entryY=0.5;entryDx=0;entryDy=0;dashed=1;endArrow=none;endFill=0;" edge="1" parent="1" source="Pp7_haZrAaMx0LdNrJ8j-68" target="Pp7_haZrAaMx0LdNrJ8j-3">
          <mxGeometry relative="1" as="geometry" />
        </mxCell>
        <mxCell id="Pp7_haZrAaMx0LdNrJ8j-68" value="n - кол-во элементов" style="strokeWidth=2;html=1;shape=mxgraph.flowchart.annotation_1;align=right;pointerEvents=1;fontFamily=JetBrains Mono;fontSize=10;direction=west;" vertex="1" parent="1">
          <mxGeometry x="150" y="70" width="10" height="30" as="geometry" />
        </mxCell>
        <mxCell id="Pp7_haZrAaMx0LdNrJ8j-71" style="rounded=0;orthogonalLoop=1;jettySize=auto;html=1;exitX=0;exitY=0.5;exitDx=0;exitDy=0;exitPerimeter=0;entryX=0;entryY=0.5;entryDx=0;entryDy=0;dashed=1;endArrow=none;endFill=0;" edge="1" parent="1" source="Pp7_haZrAaMx0LdNrJ8j-70" target="Pp7_haZrAaMx0LdNrJ8j-4">
          <mxGeometry relative="1" as="geometry" />
        </mxCell>
        <mxCell id="Pp7_haZrAaMx0LdNrJ8j-70" value="div3 -&amp;nbsp;Счетчик элементов,&lt;br&gt;делящихся нацело на 3,&lt;div&gt;evenSum - сумма&amp;nbsp;&lt;/div&gt;&lt;div&gt;четных значений,&lt;br&gt;evenCnt - счетчик&amp;nbsp;&lt;/div&gt;&lt;div&gt;четных значений&lt;/div&gt;" style="strokeWidth=2;html=1;shape=mxgraph.flowchart.annotation_1;align=right;pointerEvents=1;fontFamily=JetBrains Mono;fontSize=10;direction=west;" vertex="1" parent="1">
          <mxGeometry x="150" y="120" width="10" height="80" as="geometry" />
        </mxCell>
        <mxCell id="Pp7_haZrAaMx0LdNrJ8j-72" value="evenAvg - целая ч.&lt;div&gt;ср. арифм.&lt;/div&gt;&lt;div&gt;round - округление&lt;br&gt;по правилам арифм.&lt;/div&gt;&lt;div&gt;/ - деление&lt;/div&gt;" style="strokeWidth=2;html=1;shape=mxgraph.flowchart.annotation_1;align=left;pointerEvents=1;fontFamily=JetBrains Mono;fontSize=10;" vertex="1" parent="1">
          <mxGeometry x="670" y="90" width="10" height="60" as="geometry" />
        </mxCell>
        <mxCell id="Pp7_haZrAaMx0LdNrJ8j-73" style="rounded=0;orthogonalLoop=1;jettySize=auto;html=1;exitX=1;exitY=0.5;exitDx=0;exitDy=0;entryX=0;entryY=0.5;entryDx=0;entryDy=0;entryPerimeter=0;strokeColor=default;dashed=1;endArrow=none;endFill=0;" edge="1" parent="1" source="Pp7_haZrAaMx0LdNrJ8j-37" target="Pp7_haZrAaMx0LdNrJ8j-72">
          <mxGeometry relative="1" as="geometry" />
        </mxCell>
        <mxCell id="Pp7_haZrAaMx0LdNrJ8j-75" style="rounded=0;orthogonalLoop=1;jettySize=auto;html=1;exitX=0;exitY=0.5;exitDx=0;exitDy=0;exitPerimeter=0;entryX=0;entryY=0;entryDx=0;entryDy=0;dashed=1;endArrow=none;endFill=0;" edge="1" parent="1" source="Pp7_haZrAaMx0LdNrJ8j-74" target="Pp7_haZrAaMx0LdNrJ8j-10">
          <mxGeometry relative="1" as="geometry" />
        </mxCell>
        <mxCell id="Pp7_haZrAaMx0LdNrJ8j-74" value="% - Целочисл. дел." style="strokeWidth=2;html=1;shape=mxgraph.flowchart.annotation_1;align=right;pointerEvents=1;fontFamily=JetBrains Mono;fontSize=10;direction=west;" vertex="1" parent="1">
          <mxGeometry x="150" y="330" width="10" height="30" as="geometry" />
        </mxCell>
      </root>
    </mxGraphModel>
  </diagram>
</mxfile>
